<?xml version="1.0" encoding="UTF-8" standalone="no"?>
<svg
   xmlns:osb="http://www.openswatchbook.org/uri/2009/osb"
   xmlns:dc="http://purl.org/dc/elements/1.1/"
   xmlns:cc="http://creativecommons.org/ns#"
   xmlns:rdf="http://www.w3.org/1999/02/22-rdf-syntax-ns#"
   xmlns:svg="http://www.w3.org/2000/svg"
   xmlns="http://www.w3.org/2000/svg"
   xmlns:sodipodi="http://sodipodi.sourceforge.net/DTD/sodipodi-0.dtd"
   xmlns:inkscape="http://www.inkscape.org/namespaces/inkscape"
   width="132.29167mm"
   height="132.29167mm"
   viewBox="0 0 132.29167 132.29167"
   version="1.1"
   id="svg8"
   inkscape:version="1.0.1 (3bc2e813f5, 2020-09-07)"
   sodipodi:docname="dark-king.svg">
  <defs
     id="defs2">
    <linearGradient
       id="linearGradient2990"
       osb:paint="solid">
      <stop
         style="stop-color:#000000;stop-opacity:1;"
         offset="0"
         id="stop2988" />
    </linearGradient>
    <linearGradient
       id="linearGradient895"
       osb:paint="solid">
      <stop
         style="stop-color:#000000;stop-opacity:1;"
         offset="0"
         id="stop893" />
    </linearGradient>
  </defs>
  <sodipodi:namedview
     id="base"
     pagecolor="#ffffff"
     bordercolor="#666666"
     borderopacity="1.0"
     inkscape:pageopacity="0.0"
     inkscape:pageshadow="2"
     inkscape:zoom="1.3097285"
     inkscape:cx="115.96527"
     inkscape:cy="238.97184"
     inkscape:document-units="mm"
     inkscape:current-layer="layer1"
     inkscape:document-rotation="0"
     showgrid="false"
     inkscape:window-width="1920"
     inkscape:window-height="1017"
     inkscape:window-x="-8"
     inkscape:window-y="-8"
     inkscape:window-maximized="1"
     fit-margin-top="0"
     fit-margin-left="0"
     fit-margin-right="0"
     fit-margin-bottom="0" />
  <metadata
     id="metadata5">
    <rdf:RDF>
      <cc:Work
         rdf:about="">
        <dc:format>image/svg+xml</dc:format>
        <dc:type
           rdf:resource="http://purl.org/dc/dcmitype/StillImage" />
        <dc:title />
      </cc:Work>
    </rdf:RDF>
  </metadata>
  <g
     inkscape:label="Слой 1"
     inkscape:groupmode="layer"
     id="layer1"
     transform="translate(-48.154167,-44.827976)">
    <ellipse
       style="fill:#5d536c;stroke-width:0.295113"
       id="path14"
       cx="114.33632"
       cy="111.17599"
       rx="61.681328"
       ry="50.263367" />
    <ellipse
       style="fill:#7c6f91;stroke-width:0.279361"
       id="ellipse16-1"
       cx="114.5454"
       cy="105.21825"
       rx="61.681328"
       ry="45.041199" />
    <path
       d="M 136.62017,125.59496 H 92.47063 c -0.933941,0 -1.698056,0.76412 -1.698056,1.69805 v 3.39613 c 0,0.93393 0.764115,1.69804 1.698056,1.69804 h 44.14954 c 0.93394,0 1.69806,-0.76411 1.69806,-1.69804 v -3.39613 c 0,-0.93393 -0.76412,-1.69805 -1.69806,-1.69805 z m 6.79224,-33.96118 c -2.81243,0 -5.09418,2.28177 -5.09418,5.09417 0,0.75351 0.1698,1.45396 0.46697,2.10134 l -7.68372,4.60598 c -1.63438,0.97641 -3.74634,0.42453 -4.69089,-1.23108 L 117.7611,87.07024 c 1.13559,-0.93392 1.87847,-2.33482 1.87847,-3.92675 0,-2.812418 -2.28176,-5.094178 -5.09417,-5.094178 -2.8124,0 -5.09419,2.28176 -5.09419,5.094178 0,1.59193 0.74291,2.99283 1.8785,3.92675 l -8.6495,15.13395 c -0.94454,1.65561 -3.067124,2.20749 -4.690889,1.23108 L 90.31622,98.82929 c 0.286547,-0.63675 0.466965,-1.34783 0.466965,-2.10134 0,-2.8124 -2.281766,-5.09417 -5.094177,-5.09417 -2.81241,0 -5.104789,2.28177 -5.104789,5.09417 0,2.81242 2.281767,5.09418 5.094176,5.09418 0.275936,0 0.551869,-0.0425 0.817192,-0.0849 l 7.673091,20.4616 h 40.753432 l 7.67311,-20.4616 c 0.26532,0.0426 0.54126,0.0849 0.81719,0.0849 2.8124,0 5.09418,-2.28176 5.09418,-5.09418 0,-2.8124 -2.28178,-5.09417 -5.09418,-5.09417 z"
       id="path2"
       style="fill:#e2dbe3;stroke-width:0.106128;opacity:0.8" />
  </g>
</svg>
