<?xml version="1.0" encoding="UTF-8" standalone="no"?>
<svg
   xmlns:osb="http://www.openswatchbook.org/uri/2009/osb"
   xmlns:dc="http://purl.org/dc/elements/1.1/"
   xmlns:cc="http://creativecommons.org/ns#"
   xmlns:rdf="http://www.w3.org/1999/02/22-rdf-syntax-ns#"
   xmlns:svg="http://www.w3.org/2000/svg"
   xmlns="http://www.w3.org/2000/svg"
   xmlns:sodipodi="http://sodipodi.sourceforge.net/DTD/sodipodi-0.dtd"
   xmlns:inkscape="http://www.inkscape.org/namespaces/inkscape"
   width="132.29167mm"
   height="132.29167mm"
   viewBox="0 0 132.29167 132.29167"
   version="1.1"
   id="svg8"
   inkscape:version="1.0.1 (3bc2e813f5, 2020-09-07)"
   sodipodi:docname="light-king.svg">
  <defs
     id="defs2">
    <linearGradient
       id="linearGradient2990"
       osb:paint="solid">
      <stop
         style="stop-color:#000000;stop-opacity:1;"
         offset="0"
         id="stop2988" />
    </linearGradient>
    <linearGradient
       id="linearGradient895"
       osb:paint="solid">
      <stop
         style="stop-color:#000000;stop-opacity:1;"
         offset="0"
         id="stop893" />
    </linearGradient>
  </defs>
  <sodipodi:namedview
     id="base"
     pagecolor="#ffffff"
     bordercolor="#666666"
     borderopacity="1.0"
     inkscape:pageopacity="0.0"
     inkscape:pageshadow="2"
     inkscape:zoom="1.3097285"
     inkscape:cx="393.54173"
     inkscape:cy="238.97184"
     inkscape:document-units="mm"
     inkscape:current-layer="layer1"
     inkscape:document-rotation="0"
     showgrid="false"
     inkscape:window-width="1920"
     inkscape:window-height="1017"
     inkscape:window-x="-8"
     inkscape:window-y="-8"
     inkscape:window-maximized="1"
     fit-margin-top="0"
     fit-margin-left="0"
     fit-margin-right="0"
     fit-margin-bottom="0" />
  <metadata
     id="metadata5">
    <rdf:RDF>
      <cc:Work
         rdf:about="">
        <dc:format>image/svg+xml</dc:format>
        <dc:type
           rdf:resource="http://purl.org/dc/dcmitype/StillImage" />
        <dc:title />
      </cc:Work>
    </rdf:RDF>
  </metadata>
  <g
     inkscape:label="Слой 1"
     inkscape:groupmode="layer"
     id="layer1"
     transform="translate(-48.154167,-44.827976)">
    <ellipse
       style="fill:#918a6f;stroke-width:0.295113"
       id="path14"
       cx="114.33632"
       cy="111.17599"
       rx="61.681328"
       ry="50.263367" />
    <ellipse
       style="fill:#f4eed7;stroke-width:0.279361"
       id="ellipse16-1"
       cx="114.5454"
       cy="105.21825"
       rx="61.681328"
       ry="45.041199" />
    <path
       d="M 136.89288,125.03416 H 92.743349 c -0.933941,0 -1.698056,0.76412 -1.698056,1.69805 v 3.39613 c 0,0.93393 0.764115,1.69804 1.698056,1.69804 h 44.149531 c 0.93394,0 1.69806,-0.76411 1.69806,-1.69804 v -3.39613 c 0,-0.93393 -0.76412,-1.69805 -1.69806,-1.69805 z m 6.79224,-33.961186 c -2.81243,0 -5.09418,2.281773 -5.09418,5.094177 0,0.753512 0.1698,1.453958 0.46697,2.101341 l -7.68372,4.605978 c -1.63438,0.97641 -3.74634,0.42453 -4.69089,-1.23108 l -8.64949,-15.133949 c 1.13559,-0.933925 1.87847,-2.334821 1.87847,-3.926757 0,-2.812419 -2.28176,-5.094177 -5.09417,-5.094177 -2.8124,0 -5.09419,2.281758 -5.09419,5.094177 0,1.591936 0.74291,2.992832 1.8785,3.926757 l -8.6495,15.133949 c -0.94454,1.65561 -3.067119,2.20749 -4.69088,1.23108 l -7.673101,-4.605978 c 0.286547,-0.636758 0.466965,-1.347829 0.466965,-2.101341 0,-2.812404 -2.281766,-5.094177 -5.094177,-5.094177 -2.81241,0 -5.104789,2.281773 -5.104789,5.094177 0,2.812418 2.281767,5.094179 5.094176,5.094179 0.275936,0 0.551869,-0.0425 0.817192,-0.0849 l 7.673091,20.4616 h 40.753423 l 7.67311,-20.4616 c 0.26532,0.0426 0.54126,0.0849 0.81719,0.0849 2.8124,0 5.09418,-2.281761 5.09418,-5.094179 0,-2.812404 -2.28178,-5.094177 -5.09418,-5.094177 z"
       id="path2"
       style="fill:#aca793;stroke-width:0.106128" />
  </g>
</svg>
